<svg
        id="Camada_1"
        data-name="Camada 1"
        xmlns="http://www.w3.org/2000/svg"
        viewBox="0 0 854 500"
      >
        <defs>
          <style>
            .cls-1 {
              fill: #f2df38;
            }
          </style>
        </defs>
        <title>Logo Tellart</title>
        <polygon
          class="cls-1"
          points="557.42 1.33 397.69 343.87 328.98 343.87 488.71 1.33 557.42 1.33"
        />
        <polygon
          class="cls-1"
          points="674.87 1.33 515.13 343.87 446.42 343.87 606.14 1.33 674.87 1.33"
        />
        <polyline
          class="cls-1"
          points="183.13 1.19 183.13 66.35 263.18 66.35 263.18 343.74 274.92 343.74 330.67 224.2 330.67 66.35 404.27 66.35 434.63 1.26 434.68 1.19"
        />
        <rect
          class="cls-1"
          x="560.36"
          y="143.98"
          width="114.23"
          height="57.11"
        />
        <path
          class="cls-1"
          d="M89.26,374.73v23.48h-30v100H34.91v-100H6.05V374.73Z"
        />
        <path
          class="cls-1"
          d="M197,374.73v23.48H137.07v26.34h53V448h-53v26.68H199.3v23.48H112.74V374.73Z"
        />
        <path class="cls-1" d="M248.79,374.73v100h58v23.48H224.47V374.73Z" />
        <path class="cls-1" d="M356.32,374.73v100h58v23.48H332V374.73Z" />
        <path
          class="cls-1"
          d="M500.59,474H459.65l-10.06,24.15h-24l55.69-128.33h1.35l55.69,128.33H510.15Zm-8.06-20.47-11.91-30-12.41,30Z"
        />
        <path
          class="cls-1"
          d="M622.88,498.19l-26-39.25H580.6v39.25H556.28V374.73h37.41q23,0,35.65,11.15T642,416.33a48.88,48.88,0,0,1-4.78,21.39,35.49,35.49,0,0,1-14.68,15.68l28.69,44.79ZM580.6,435.45h17.28q9.9,0,14.43-5.79a19.85,19.85,0,0,0,4.53-12.49A23.78,23.78,0,0,0,613,404.33q-3.86-6.12-14.93-6.12H580.6Z"
        />
        <path
          class="cls-1"
          d="M743.66,374.73v23.48h-30v100H689.31v-100H660.45V374.73Z"
        />
        <path
          class="cls-1"
          d="M758.56,474.71v1.5H745.4v10.52h11.4v1.5H745.4v11.49h-1.83v-25Z"
        />
        <path class="cls-1" d="M769.81,499.72H768v-25h1.83Z" />
        <path class="cls-1" d="M783.24,498.18H795.1v1.54H781.44v-25h1.8Z" />
        <path
          class="cls-1"
          d="M815.53,493.5c.07-.19.15-.38.23-.56a4.16,4.16,0,0,1,.25-.52L825.84,475a.62.62,0,0,1,.28-.28,1.09,1.09,0,0,1,.39-.05h1.26v25h-1.59V478.4a8.19,8.19,0,0,1,.05-1l-9.85,17.48a.76.76,0,0,1-.7.46h-.29a.78.78,0,0,1-.7-.46l-10.11-17.5c0,.34,0,.67,0,1v21.32h-1.58v-25h1.24a1.11,1.11,0,0,1,.4.05.59.59,0,0,1,.29.28l10.09,17.39A6.89,6.89,0,0,1,815.53,493.5Z"
        />
        <path
          class="cls-1"
          d="M850.83,477.75a.49.49,0,0,1-.46.3,1,1,0,0,1-.59-.33,8,8,0,0,0-1-.73,8.15,8.15,0,0,0-1.56-.73,7.76,7.76,0,0,0-4.7.05,5.06,5.06,0,0,0-1.73,1.06,4.49,4.49,0,0,0-1.07,1.56,4.89,4.89,0,0,0-.36,1.86,3.79,3.79,0,0,0,.54,2.1,4.89,4.89,0,0,0,1.42,1.41,8.94,8.94,0,0,0,2,1c.75.27,1.52.53,2.31.79s1.56.55,2.31.86a8.28,8.28,0,0,1,2,1.17,5.61,5.61,0,0,1,1.43,1.74,5.54,5.54,0,0,1,.54,2.58,8.1,8.1,0,0,1-.54,3,6.84,6.84,0,0,1-1.57,2.41,7.45,7.45,0,0,1-2.51,1.62,9.19,9.19,0,0,1-3.39.59,9.64,9.64,0,0,1-4.26-.87,10.27,10.27,0,0,1-3.13-2.4l.5-.78a.62.62,0,0,1,.49-.26.72.72,0,0,1,.41.21l.6.52c.24.21.52.43.85.67a6.57,6.57,0,0,0,1.15.67,8.74,8.74,0,0,0,1.5.53,8.09,8.09,0,0,0,1.93.21,7.34,7.34,0,0,0,2.66-.45,5.69,5.69,0,0,0,2-1.23,5.17,5.17,0,0,0,1.23-1.85,6,6,0,0,0,.43-2.29,4,4,0,0,0-.54-2.18,4.65,4.65,0,0,0-1.43-1.43,8.92,8.92,0,0,0-2-1c-.75-.26-1.52-.51-2.31-.76s-1.56-.52-2.31-.83a7.74,7.74,0,0,1-2-1.17,5.25,5.25,0,0,1-1.43-1.79,5.89,5.89,0,0,1-.54-2.68,6.33,6.33,0,0,1,.48-2.42,6,6,0,0,1,1.4-2.06,6.93,6.93,0,0,1,2.27-1.43,8.27,8.27,0,0,1,3.09-.54,9.45,9.45,0,0,1,3.5.62,8.33,8.33,0,0,1,2.82,1.89Z"
        />
      </svg>